<svg width="33" height="32" viewBox="0 0 33 32" fill="none" xmlns="http://www.w3.org/2000/svg">
<path d="M31.533 29.178C32.1791 29.825 32.1791 30.8735 31.533 31.5204C30.886 32.1665 29.8376 32.1665 29.1906 31.5204L24.0559 26.3849L26.3974 24.0434L31.533 29.178ZM3.51621 3.50383C8.18134 -1.16127 15.7463 -1.16127 20.4132 3.50383C24.6814 7.77196 25.0443 14.4658 21.5029 19.148L24.8221 22.4671L22.4805 24.8086L19.1613 21.4895C14.4792 25.0309 7.78526 24.668 3.5171 20.3998C-1.14893 15.7338 -1.14893 8.16894 3.5171 3.50294L3.51621 3.50383ZM23.6491 25.9789L22.8865 25.2164L25.2289 22.874L25.9915 23.6365L23.6491 25.9789ZM5.46793 5.45554C1.87991 9.04353 1.87991 14.8601 5.46793 18.4481C9.05594 22.0361 14.8726 22.0361 18.4606 18.4481C22.0486 14.8601 22.0486 9.04353 18.4606 5.45554C14.8726 1.86755 9.05594 1.86755 5.46793 5.45554Z" fill="black"/>
<path d="M5.82288 11.7507C5.81212 12.1306 5.494 12.4299 5.11406 12.4183C4.73411 12.4066 4.4357 12.0885 4.44735 11.7094C4.50829 9.79179 5.2879 7.98884 6.64461 6.63214C8.00131 5.27544 9.80339 4.49673 11.7211 4.4349C12.101 4.42325 12.4182 4.72165 12.4299 5.1016C12.4415 5.48155 12.1431 5.79966 11.7632 5.81131C10.2004 5.8606 8.72537 6.5031 7.62047 7.60799C6.51557 8.71289 5.87306 10.1888 5.82288 11.7507Z" fill="black"/>
</svg>
